<?xml version="1.0" encoding="utf-8"?>
<!-- Generator: Adobe Illustrator 23.0.3, SVG Export Plug-In . SVG Version: 6.00 Build 0)  -->
<svg version="1.1" id="Layer_1" xmlns="http://www.w3.org/2000/svg" xmlns:xlink="http://www.w3.org/1999/xlink" x="0px" y="0px"
	 viewBox="0 0 597.6 281" style="enable-background:new 0 0 597.6 281;" xml:space="preserve">
<style type="text/css">
	.st0{fill:#FFFFFF;}
</style>
<g>
	<path class="st0" d="M179.5,193.7c0-4.7,2.4-8.2,6.9-10.7l1.3,2c-3.6,2.4-5.2,5-5.2,8.7s1.7,6.3,5.2,8.7l-1.3,2
		C181.8,201.9,179.5,198.5,179.5,193.7z"/>
	<path class="st0" d="M204.7,192.9c-1,1.2-2.3,1.9-4.1,1.9c-3.7,0-6.2-2.2-6.2-5.6v0c0-3.4,2.7-6.1,6.5-6.1c2.2,0,3.6,0.6,4.9,1.9
		c1.3,1.3,2.1,3.2,2.1,6.7v0c0,5.6-2.8,9.5-7.5,9.5c-2.4,0-4.1-0.9-5.6-2.1l1.7-2.4c1.3,1.1,2.5,1.7,4,1.7
		C203.5,198.4,204.6,195.2,204.7,192.9z M204.5,189L204.5,189c0-1.9-1.4-3.3-3.7-3.3c-2.2,0-3.5,1.5-3.5,3.3v0
		c0,1.8,1.4,3.1,3.6,3.1C203.2,192.2,204.5,190.7,204.5,189z"/>
	<path class="st0" d="M217.7,186.4l-3.2,0.9l-0.6-2.5l4.7-1.5h2.1v17.6h-3.1V186.4z"/>
	<path class="st0" d="M228.1,198.1l2.2-2c1.3,1.5,2.7,2.3,4.6,2.3c1.7,0,3-1.1,3-2.7v0c0-1.7-1.6-2.7-4-2.7h-1.4l-0.5-1.9l4.7-5
		h-7.6v-2.7h11.6v2.3l-4.9,5c2.7,0.3,5.2,1.7,5.2,4.9v0c0,3.2-2.5,5.6-6.1,5.6C231.8,201.2,229.6,199.9,228.1,198.1z"/>
	<path class="st0" d="M247.7,202.4c3.6-2.4,5.2-5,5.2-8.7s-1.7-6.3-5.2-8.7l1.3-2c4.6,2.5,6.9,6,6.9,10.7s-2.4,8.2-6.9,10.7
		L247.7,202.4z"/>
	<path class="st0" d="M274.1,196.1L274.1,196.1c0-2.2,1.2-3.5,3.2-4.3c-1.5-0.8-2.6-2-2.6-3.9v0c0-2.7,2.6-4.7,6.1-4.7
		s6.1,2,6.1,4.7v0c0,2-1.1,3.1-2.6,3.9c1.9,0.9,3.2,2.1,3.2,4.2v0c0,3.1-2.9,5.1-6.7,5.1C277,201.2,274.1,199.2,274.1,196.1z
		 M284.5,196L284.5,196c0-1.7-1.6-2.7-3.7-2.7s-3.7,1-3.7,2.7v0c0,1.4,1.4,2.6,3.7,2.6S284.5,197.4,284.5,196z M283.9,188.2
		L283.9,188.2c0-1.4-1.3-2.5-3.1-2.5c-1.9,0-3.1,1.1-3.1,2.4v0c0,1.5,1.3,2.6,3.1,2.6S283.9,189.7,283.9,188.2z"/>
	<path class="st0" d="M293.8,196.1L293.8,196.1c0-2.2,1.2-3.5,3.2-4.3c-1.5-0.8-2.6-2-2.6-3.9v0c0-2.7,2.6-4.7,6.1-4.7
		s6.1,2,6.1,4.7v0c0,2-1.1,3.1-2.6,3.9c1.9,0.9,3.2,2.1,3.2,4.2v0c0,3.1-2.9,5.1-6.7,5.1S293.8,199.2,293.8,196.1z M304.2,196
		L304.2,196c0-1.7-1.6-2.7-3.7-2.7s-3.7,1-3.7,2.7v0c0,1.4,1.4,2.6,3.7,2.6S304.2,197.4,304.2,196z M303.6,188.2L303.6,188.2
		c0-1.4-1.2-2.5-3.1-2.5s-3.1,1.1-3.1,2.4v0c0,1.5,1.3,2.6,3.1,2.6S303.6,189.7,303.6,188.2z"/>
	<path class="st0" d="M313.5,198.5l6-5.1c2.4-2.1,3.3-3.2,3.3-4.7c0-1.7-1.2-2.7-2.8-2.7s-2.7,0.9-4,2.6l-2.2-1.7
		c1.7-2.3,3.3-3.7,6.5-3.7c3.4,0,5.8,2.1,5.8,5.2v0c0,2.8-1.5,4.3-4.6,6.8l-3.6,3h8.3v2.7h-12.7V198.5z"/>
	<path class="st0" d="M333,191.8h7.4v3H333V191.8z"/>
	<path class="st0" d="M347,198.5l6-5.1c2.4-2.1,3.3-3.2,3.3-4.7c0-1.7-1.2-2.7-2.8-2.7s-2.7,0.9-4,2.6l-2.2-1.7
		c1.7-2.3,3.3-3.7,6.5-3.7c3.4,0,5.8,2.1,5.8,5.2v0c0,2.8-1.5,4.3-4.6,6.8l-3.6,3h8.3v2.7H347V198.5z"/>
	<path class="st0" d="M369.5,186.4l-3.2,0.9l-0.7-2.5l4.7-1.5h2.1v17.6h-3.1V186.4z"/>
	<path class="st0" d="M380.1,196.1L380.1,196.1c0-2.2,1.2-3.5,3.2-4.3c-1.5-0.8-2.6-2-2.6-3.9v0c0-2.7,2.6-4.7,6.1-4.7
		s6.1,2,6.1,4.7v0c0,2-1.1,3.1-2.6,3.9c1.9,0.9,3.2,2.1,3.2,4.2v0c0,3.1-2.9,5.1-6.7,5.1S380.1,199.2,380.1,196.1z M390.4,196
		L390.4,196c0-1.7-1.6-2.7-3.7-2.7s-3.7,1-3.7,2.7v0c0,1.4,1.4,2.6,3.7,2.6S390.4,197.4,390.4,196z M389.9,188.2L389.9,188.2
		c0-1.4-1.2-2.5-3.1-2.5s-3.1,1.1-3.1,2.4v0c0,1.5,1.3,2.6,3.1,2.6S389.9,189.7,389.9,188.2z"/>
	<path class="st0" d="M399.8,198.5l6-5.1c2.4-2.1,3.3-3.2,3.3-4.7c0-1.7-1.2-2.7-2.8-2.7s-2.7,0.9-4,2.6l-2.2-1.7
		c1.7-2.3,3.3-3.7,6.5-3.7c3.4,0,5.8,2.1,5.8,5.2v0c0,2.8-1.5,4.3-4.6,6.8l-3.6,3h8.3v2.7h-12.7V198.5z"/>
</g>
<g>
	<path class="st0" d="M119.4,136.8H114V89.6h5.5c12.8,0.1,13.8,5.1,13.8,23.6C133.2,131.6,132.3,136.7,119.4,136.8z M120.9,129.8
		c4.9,0,5.2-1.2,5.1-16.7c0.1-15.4-0.3-16.6-5.1-16.6V129.8z"/>
	<path class="st0" d="M137.8,89.6h15.8v7.1h-8.9v12.4h6.4v7.6h-6.4v13h8.9v7.1h-15.8V89.6z"/>
	<path class="st0" d="M157.5,89.6h6.9v40.7h9.2v6.4h-16.1V89.6z"/>
	<path class="st0" d="M176.4,89.6h6.9v47.1h-6.9V89.6z"/>
	<path class="st0" d="M201.1,89.6h6.7l-7.2,47.1h-6.9l-7.2-47.1h6.7l3.5,25.9l0.3,2h0.4l0.3-2L201.1,89.6z"/>
	<path class="st0" d="M210.9,89.6h15.8v7.1h-8.9v12.4h6.4v7.6h-6.4v13h8.9v7.1h-15.8V89.6z"/>
	<path class="st0" d="M243,136.8l-3.6-19.9h-1.9v19.9h-6.9V89.6h6.9c8.2,0,11.8,4.7,11.8,13.6c0,4.7-1.2,8.9-3.8,10.7l4.4,22.8H243z
		 M237.6,96.5v14c1.9,0,5.1-0.3,5.1-7S239.5,96.5,237.6,96.5z"/>
	<path class="st0" d="M261.9,104.7l0.2,0.4h0.1l0.2-0.4l3.5-15.1h6.8l-7.1,27.1v20.1h-6.9v-20.1l-7.1-27.1h6.8L261.9,104.7z"/>
	<path class="st0" d="M305.3,152.8c0-21.5,0-68.6,0-69h6v69H305.3z"/>
	<path class="st0" d="M346.1,89.6c0,0,6.6,0,6.9,0c6,0,12.2,3.3,12.2,14.1s-6.2,14.2-12.2,14.2v18.9h-6.9V89.6z M353.1,110.9
		c4.4,0,5.2-1.6,5.2-6.9c0-5.3-0.8-7.3-5.2-7.3V110.9z"/>
	<path class="st0" d="M368.7,89.6h6.9v47.1h-6.9V89.6z"/>
	<path class="st0" d="M398.8,120.6v6.5c0,0,0.1,10.2-9.2,10.2c-9.3,0-9.2-10.2-9.2-10.2V99.3c0,0-0.1-10.2,9.2-10.2
		c9.3,0,9.2,10.2,9.2,10.2v6.5h-6.5v-6.5c0,0,0.3-3.5-2.6-3.5c-2.4,0-2.4,3.5-2.4,3.5v27.8c0,0,0,3.5,2.4,3.5c2.9,0,2.6-3.5,2.6-3.5
		v-6.5H398.8z"/>
	<path class="st0" d="M409.9,89.6v15.7v0.8h0.3l0.3-0.8l5.8-15.7h6.7l-6.3,15.5l7.2,31.6h-6.7l-4.8-20.5l-0.2-1h-0.2l-0.4,1
		l-1.6,3.8v16.7H403c0-14.8,0-47.1,0-47.1H409.9z"/>
	<path class="st0" d="M455.3,89.6v37.5c0,0,0.1,10.2-9.2,10.2s-9.2-10.2-9.2-10.2V89.6h6.9v37.5c0,0-0.1,3.5,2.3,3.5
		c2.4,0,2.3-3.5,2.3-3.5V89.6H455.3z"/>
	<path class="st0" d="M460.4,89.6c0,0,6.6,0,6.9,0c6,0,12.2,3.3,12.2,14.1s-6.2,14.2-12.2,14.2v18.9h-6.9V89.6z M467.3,110.9
		c4.4,0,5.2-1.6,5.2-6.9c0-5.3-0.8-7.3-5.2-7.3V110.9z"/>
</g>
<g>
	<path class="st0" d="M536,248.1H55.8V32H536V248.1z M59.8,244.1H532V36H59.8V244.1z"/>
</g>
</svg>
