<?xml version="1.0" encoding="utf-8"?>
<!-- Generator: Adobe Illustrator 23.0.3, SVG Export Plug-In . SVG Version: 6.00 Build 0)  -->
<svg version="1.1" id="Layer_1" xmlns="http://www.w3.org/2000/svg" xmlns:xlink="http://www.w3.org/1999/xlink" x="0px" y="0px"
	 viewBox="0 0 881.5 190.3" style="enable-background:new 0 0 881.5 190.3;" xml:space="preserve">
<style type="text/css">
	.st0{fill:#FFFFFF;}
</style>
<g>
	<g>
		<path class="st0" d="M320.5,160.6c0,0.3,0,0.6,0,1.1c-0.5,0.1-0.8,0.2-1.1,0.2c-6.6,0-13.2,0-19.9,0c-0.2,0-0.4-0.1-0.8-0.2
			c-0.1-0.5-0.3-1-0.4-1.5c-0.6-4.5-1.2-9-1.8-13.6c0-0.4-0.2-0.7-0.3-1.2c-0.4-0.1-0.9-0.3-1.3-0.3c-0.8-0.1-1.5,0-2.3,0
			c-5.3,0-10.7,0-16,0c-0.8,0-1.7,0.1-2.5,0.1c-0.2,0.5-0.5,0.9-0.5,1.3c-0.4,2.8-0.7,5.6-1.1,8.4c-0.3,2.1-0.7,4.2-1.1,6.3
			c0,0.1-0.1,0.3-0.3,0.5c-0.4,0.1-0.8,0.2-1.2,0.2c-6.1,0-12.2,0-18.3,0c-0.4,0-0.7-0.1-1.2-0.1c0-0.5,0-0.8,0-1.2
			c0.7-3.9,1.3-7.8,2.2-11.7c0.5-2.4,1.1-4.9,1.6-7.3c1.2-6.3,2.3-12.6,3.4-18.9c1-5.2,1.9-10.5,2.9-15.7c1.2-6.4,2.3-12.7,3.5-19.1
			c1-5.2,1.9-10.5,2.9-15.7c1.2-6.4,2.3-12.7,3.5-19.1c0.7-3.6,1.2-7.2,2.2-10.7c0.7-2.5,1-5.1,1.4-7.6c0.2-1,0.4-2.1,0.6-3.2
			c0.4-0.1,0.7-0.2,1.1-0.2c6.5,0,12.9,0,19.4,0c0.2,0,0.4,0.1,0.8,0.1c0.1,0.4,0.3,0.8,0.4,1.2c0.7,3.9,1.5,7.8,2.2,11.7
			c1,5.4,2,10.8,3,16.1c1.9,10.3,3.8,20.6,5.7,31c1.1,5.9,2.2,11.8,3.3,17.7c0.6,2.9,1.3,5.8,1.9,8.7c1.4,7.2,2.7,14.5,4,21.8
			c1.1,5.8,2.2,11.7,3.3,17.5C320.1,158.2,320.3,159.4,320.5,160.6z M292.7,117.8c0-0.4,0-0.7,0-0.9c-0.4-1.9-0.8-3.7-1.1-5.6
			c-0.9-5.9-1.8-11.9-2.7-17.8c-1-6.6-1.9-13.2-2.9-19.8c-0.2-1.2-0.4-2.4-0.6-3.6c0-0.2-0.1-0.6-0.6-0.4
			c-0.7,4.5-6.3,46.2-6.3,48.1c0.1,0.1,0.2,0.3,0.4,0.3c4.3,0,8.7,0.1,13,0.1C292.1,118,292.3,117.9,292.7,117.8z"/>
		<path class="st0" d="M246.1,129.2c0.1,2.9,0,30.7-0.1,32.3c-0.3,0.1-0.6,0.2-1,0.3c-0.6,0-1.2,0-1.8,0c-17.9,0-35.8,0-53.7,0
			c-0.9,0-1.8,0.1-2.8-0.2c-0.4-0.8-0.2-1.7-0.2-2.5c0-8.9,0-17.8,0-26.7c0-0.8,0-1.5,0-2.2c0.9-1.9,1.7-3.7,2.6-5.4
			c1.2-2.5,2.3-5,3.5-7.4c0.7-1.5,1.6-3,2.3-4.4c0.4-0.7,0.7-1.4,1-2c4.5-9.3,8.9-18.5,13.4-27.8c1.2-2.5,2.3-5,3.5-7.4
			c1.3-2.7,2.7-5.3,4-7.9c0.3-0.7,0.6-1.4,0.9-2c-0.2-0.5-0.6-0.6-1-0.6c-0.8,0-1.5-0.1-2.3-0.1c-8.1,0-16.3,0-24.4,0
			c-0.8,0-1.7,0.2-2.4-0.3c-0.1-0.3-0.2-0.5-0.2-0.7c0-10.7,0-21.3,0-32c0-0.2,0.1-0.4,0.2-0.6c0.2-0.1,0.4-0.2,0.7-0.2
			c18.9,0,37.8,0,56.7,0c0.1,0.5,0.3,0.9,0.3,1.3c0.1,0.4,0,0.8,0,1.1c0,9.1,0,18.3,0,27.4c0,0.7,0,1.4,0,2
			c-2.7,5.4-5.4,10.8-8.1,16.2c-2.7,5.4-5.5,10.7-8.2,16c-2.7,5.4-5.3,10.8-8.1,16.1c-2.7,5.3-5.1,10.8-8.3,16.1
			c0.6,0.2,0.8,0.4,1.1,0.4c0.8,0.1,1.5,0.1,2.3,0.1c9.1,0,18.3,0,27.4,0c0.8,0,1.7-0.2,2.5,0.3C246,128.6,246.1,128.9,246.1,129.2z
			"/>
		<path class="st0" d="M178.2,129.4c0.1,0.4,0,0.9,0,1.4c0,9.4,0,18.9,0,28.3c0,0.8,0.1,1.7-0.2,2.4c-0.3,0.1-0.5,0.2-0.7,0.2
			c-19.2,0-38.4,0-57.6,0c-0.2,0-0.4-0.1-0.7-0.2c-0.3-0.8-0.2-1.6-0.2-2.4c0-7.8,0-15.5,0-23.3c0-2,0-4,0-5.8
			c0.4-0.8,0.6-1.4,0.9-2c4.4-9.1,8.7-18.1,13.1-27.2c0.9-1.8,1.6-3.6,2.5-5.4s1.9-3.5,2.8-5.2c3.8-7.7,7.5-15.5,11.2-23.2
			c0.2-0.4,0.4-0.8,0.5-1.2c-0.1-0.6-0.5-0.7-0.9-0.7c-0.8,0-1.5,0-2.3,0c-8.1,0-16.1,0-24.2,0c-0.8,0-1.7,0.1-2.6-0.3
			c-0.1-0.4-0.2-0.8-0.2-1.3c0-1.5,0-3,0-4.6c0-8.3,0-16.6,0-24.9c0-0.8-0.1-1.7,0.3-2.6c0.3-0.1,0.7-0.1,1.1-0.2c0.5,0,0.9,0,1.4,0
			c17.6,0,35.2,0,52.8,0c0.7,0,1.5,0.1,2.3,0.1c0.4,0.9,0.2,1.7,0.2,2.6c0,8.7,0,17.5,0,26.3c0,1,0,2,0,3.1c-1,1.7-2,3.5-2.9,5.3
			c-0.4,0.7-0.7,1.3-1.1,2c-3.5,7.1-7.1,14.2-10.6,21.2c-1.8,3.5-3.5,7.1-5.3,10.6c-2.4,4.7-4.9,9.3-7.3,13.9
			c-1.7,3.3-3.3,6.7-4.9,10c-0.2,0.4-0.3,0.8-0.4,1.2c0.8,0.5,1.6,0.3,2.3,0.3c6.4,0,12.8,0,19.2,0c3,0,5.9,0,8.9,0
			c0.8,0,1.5,0,2.4,0C178,128.6,178.1,129,178.2,129.4z"/>
		<path class="st0" d="M108.3,32.3c0,0.7,0,1.4,0,2.1c0,41.4,0,82.8,0,124.2c0,1,0.2,2-0.3,3.2c-7.1,0-14.1,0-21.1,0
			c-0.5,0-1-0.1-1.7-0.1c-0.1-0.4-0.2-0.7-0.3-1.1c0-0.7,0-1.4,0-2.1c0-41.3,0-82.6,0-124c0-1-0.1-2,0.2-3.1
			c0.4-0.1,0.8-0.2,1.3-0.2c6.8,0,13.7,0,20.5,0c0.4,0,0.7,0.1,1.1,0.1C108.2,31.8,108.3,32,108.3,32.3z"/>
		<path class="st0" d="M78.9,59.3c0.7,4.8,1.1,9.5,1.1,14.3c0,3.3,0,6.6-0.1,9.8C79.6,88,79.1,92.5,78,97c-1.2,4.6-2.5,9.1-4.9,13.2
			c-2,3.5-4.6,6.5-7.8,8.9c-1.9,1.4-4.2,2.2-6.5,2.5c-2.1,0.3-4.2,0.4-6.4,0.4c-3.1,0-6.2,0-9.4,0c-0.8,0-1.5-0.1-2.3,0.2
			c-0.1,0.4-0.2,0.7-0.2,1.1c0,0.7,0,1.4,0,2c0,11.2,0,22.4,0,33.6c0,0.8,0,1.7,0,2.4c-0.6,0.7-1.2,0.5-1.8,0.6c-5,0-9.9,0-14.8,0
			c-1.8,0-3.6,0-5.5,0c-0.5,0-1-0.1-1.6-0.2c-0.1-0.4-0.2-0.7-0.2-1c0-42.8,0-85.7,0-128.5c0-0.2,0.1-0.4,0.2-0.7
			c0.5,0,1-0.1,1.5-0.1c13.5,0,26.9,0,40.4,0c4.9,0,8.7,2.3,11.8,6c1.8,2.2,3,4.8,4.1,7.3c0.8,2,1.4,4,2.1,6c0.3,1,0.7,2,1,3
			C78.2,55.6,78.6,57.4,78.9,59.3z M58.9,81.8c0.3-2.2,0.6-4.4,0.4-6.6c-0.2-2.7-0.4-5.3-1.4-7.8c-1.2-2.8-3.1-4.2-6.1-4.3
			c-3.3,0-6.6,0-9.8,0c-0.4,0-0.8,0.2-1.2,0.3c-0.1,0.3-0.2,0.6-0.2,0.8c0,8,0,16,0,24c0,0.3,0.1,0.6,0.1,1.2
			c0.7,0.1,1.2,0.2,1.7,0.2c2.5,0,5,0.1,7.5,0c1.1,0,2.3-0.2,3.4-0.4c1.4-0.3,2.7-1.1,3.6-2.3C57.9,85.3,58.6,83.6,58.9,81.8z"/>
	</g>
	<g>
		<path class="st0" d="M864.8,129.9c0,8.8,0,17.6,0,26.4c0,0.6-0.2,1.1-0.2,1.8c-0.6,0.1-1.1,0.2-1.6,0.2
			c-9.8,0.3-54.6,0.1-57.1-0.2c-0.1-0.4-0.3-0.9-0.3-1.4c-0.1-0.8,0-1.5,0-2.3c0-39.7,0-79.3,0-119c0-1.1,0-2.2,0-3.4
			c0.6-0.1,0.8-0.3,1-0.3c18.7,0,37.5,0,56.2,0c0.2,0,0.5,0.1,0.8,0.2c0.1,0.4,0.2,0.8,0.2,1.2c0,9.6,0,19.1,0,28.7
			c0,0.5-0.1,1-0.2,1.6c-0.5,0.1-0.9,0.2-1.3,0.2c-1.2,0-2.4,0-3.6,0c-9.4,0-18.8,0-28.2,0c-1,0-2-0.1-3.1,0.3
			c-0.1,0.4-0.3,0.8-0.3,1.2c0,4.2,0,8.5,0,12.7c0,0.4,0.1,0.8,0.2,1.1c0.7,0.6,1.4,0.5,2.1,0.5c2.2,0,4.4,0,6.6,0
			c6.3,0,12.5,0,18.8,0c0.8,0,1.7,0.1,2.6,0.1c0.1,0.5,0.2,0.9,0.2,1.3c0,8.8,0,17.6,0,26.4c0,0.4-0.1,0.8-0.1,1.3
			c-1,0.4-1.9,0.3-2.8,0.3c-7.8,0-15.6,0-23.4,0c-0.8,0-1.7,0-2.5,0c-0.4,0-0.8,0.1-1.3,0.2c-0.1,0.5-0.3,0.9-0.3,1.3
			c0,5.5,0,11,0,16.5c0,0.3,0.1,0.6,0.2,1.1c0.4,0.1,0.8,0.3,1.2,0.3c0.8,0.1,1.5,0,2.3,0c10.2,0,20.5,0,30.8,0
			c0.9,0,1.9-0.2,2.9,0.3C864.7,129,864.8,129.5,864.8,129.9z"/>
		<path class="st0" d="M797.2,126.5c0,2.9,0,5.8,0,8.6c0,6.7,0,13.4,0,20.1c0,0.9,0.2,1.9-0.3,2.8c-0.4,0.1-0.8,0.2-1.2,0.2
			c-1,0-2,0-3.1,0c-15.2,0-30.5,0-45.8,0c-1,0-2,0-3.1-0.1c-0.2-0.6-0.4-1.1-0.4-1.5c-0.1-0.7,0-1.4,0-2c0-39.8,0-79.7,0-119.5
			c0-1.1-0.2-2.2,0.2-3.1c0.3-0.1,0.4-0.3,0.6-0.3c6.8,0,13.5,0,20.3-0.1c0.3,0,0.6,0.1,1.1,0.2c0.1,0.4,0.2,0.8,0.3,1.2
			c0,0.8,0,1.7,0,2.5c0,28.4,0,56.8,0,85.2c0,1.1-0.2,2.2,0.3,3.4c0.4,0.1,0.9,0.3,1.3,0.4c0.8,0.1,1.5,0,2.3,0c8,0,16.1,0,24.1,0
			c0.9,0,1.9-0.2,2.9,0.3C797.1,125.4,797.2,126,797.2,126.5z"/>
		<path class="st0" d="M737.9,51.2c0,3.8,0,7.6,0,11.4c0,0.8-0.1,1.7-0.1,2.4c-0.7,0.7-1.4,0.5-2.1,0.5c-5.2,0-10.3,0-15.5,0
			c-0.9,0-1.8,0-2.8,0.1c-0.2,0.6-0.3,1.1-0.4,1.5c-0.1,0.8,0,1.7,0,2.5c0,28.3,0,56.6,0,84.9c0,1.1,0.1,2.2-0.2,3.2
			c-0.8,0.7-1.7,0.5-2.5,0.5c-6.1,0-12.2,0-18.3,0c-0.8,0-1.7,0-2.6-0.1c-0.2-0.6-0.3-1-0.4-1.5c-0.1-0.8,0-1.7,0-2.5
			c0-28.2,0-56.4,0-84.6c0-0.9,0-1.7,0-2.5c0-0.4-0.2-0.8-0.3-1.1c-0.9-0.5-1.8-0.3-2.6-0.3c-4.5,0-9,0-13.5,0
			c-0.8,0-1.7,0.2-2.6-0.3c-0.1-0.5-0.1-1-0.2-1.5c-0.3-10.5-0.1-29.5,0.2-31.9c0.4-0.1,0.7-0.2,1.1-0.2c0.7,0,1.4,0,2,0
			c19.1,0,38.1,0,57.2,0c1,0,2-0.1,3,0.1c0.5,0.8,0.3,1.7,0.3,2.5C737.9,40,737.9,45.6,737.9,51.2z"/>
		<path class="st0" d="M665.3,62.6c0,0.9,0.2,1.9-0.4,2.8c-0.8,0-1.7,0.1-2.5,0.1c-5,0-10,0-15,0c-0.8,0-1.7,0.1-2.6,0.1
			c-0.2,0.5-0.3,0.9-0.4,1.3c-0.1,0.8,0,1.7,0,2.5c0,28.4,0,56.8,0,85.2c0,1.1,0.1,2.2-0.3,3.4c-0.4,0.1-0.8,0.3-1.2,0.3
			c-7,0-14.1,0-21.1,0c-0.3,0-0.6-0.1-1.1-0.2c-0.1-0.4-0.2-0.8-0.3-1.2c0-0.8,0-1.7,0-2.5c0-28.4,0-56.8,0-85.2
			c0-1.1,0.1-2.2-0.2-3.1c-0.8-0.6-1.6-0.5-2.3-0.5c-4.6,0-9.2,0-13.7,0c-0.8,0-1.7,0.1-2.7-0.3c-0.1-0.5-0.2-1-0.3-1.6
			c0-2.6,0-5.3,0-7.9c0-6.9,0-13.9,0-20.8c0-0.9,0-1.8,0-2.9c0.5-0.1,0.9-0.2,1.3-0.3c0.7,0,1.4,0,2,0c19.1,0,38.1,0,57.2,0
			c1,0,2-0.1,2.8,0.1c0.6,0.5,0.6,1,0.6,1.5c0,0.8,0,1.7,0,2.5C665.3,44.8,665.3,53.7,665.3,62.6z"/>
		<path class="st0" d="M596.4,33.3c0.1,0.7,0,1.4,0,2c0,26.4,0,52.7,0,79.1c0,5-0.3,10-1,14.9c-0.7,4.4-1.7,8.8-3.5,13
			c-2.5,6-6.6,10.7-12,14.5c-3.9,2.7-8.3,4-13,4.6c-2.3,0.3-4.5,0.4-6.8,0.4c-4.4-0.1-8.8-0.8-12.9-2.6c-6.5-2.8-11.3-7.3-14.7-13.5
			c-2.3-4.2-3.7-8.7-4.6-13.4c-1.1-5.5-1.5-11.1-1.5-16.7c0-27,0-54.1,0-81.1c0-0.8,0-1.5,0-2.6c0.7-0.1,1.1-0.2,1.5-0.2
			c5.9-0.2,19.3-0.1,21.5,0.2c0.1,0.3,0.2,0.7,0.2,1.1c0,0.8,0,1.7,0,2.5c0,27.1,0,54.2,0,81.3c0,1.8,0.1,3.6,0.6,5.3
			c0.9,3.2,2.6,5.8,5.4,7.7c4.8,3.1,11.8,1.1,14.2-3.8c1-2.1,1.6-4.3,1.7-6.6c0.1-1.4,0.1-2.7,0.1-4.1c0-26.8,0-53.5,0-80.3
			c0-1,0-2,0.1-3.1c0.5-0.1,0.9-0.2,1.3-0.2c7.4,0,14.7,0,22.1,0c0.2,0,0.5,0.1,0.9,0.1C596.2,32.3,596.4,32.8,596.4,33.3z"/>
		<path class="st0" d="M515.6,33.3c0.1,0.8,0,1.5,0,2.3c0,39.7,0,79.3,0,119c0,1.1,0,2.2,0,3.1c-0.6,0.8-1.4,0.7-2,0.7
			c-3.3,0-6.6,0-9.9,0c-3.1,0-6.3,0-9.4,0c-0.8,0-1.7,0-2.6-0.1c-0.1-0.6-0.3-1-0.4-1.5c-0.1-0.8,0-1.5,0-2.3c0-13.6,0-27.1,0-40.7
			c0-1,0.1-2-0.1-2.8c-0.4-0.6-0.9-0.6-1.3-0.6c-6,0-12,0-18.1,0c-0.3,0-0.6,0.1-1.1,0.2c-0.1,0.4-0.2,0.8-0.3,1.2
			c0,0.8,0,1.5,0,2.3c0,13.6,0,27.1,0,40.7c0,1,0,2,0,2.9c-0.6,0.8-1.3,0.7-2,0.7c-3.3,0-6.6,0-9.9,0c-2.8,0-5.6,0-8.4,0
			c-0.8,0-1.7,0-2.6-0.1c-0.1-0.6-0.3-1-0.3-1.5c-0.1-0.8,0-1.5,0-2.3c0-39.7,0-79.3,0-119c0-1.1,0-2.2,0-3.6
			c0.7-0.1,1.1-0.1,1.5-0.2c5.3-0.2,19.3-0.1,21.5,0.2c0.1,0.4,0.2,0.9,0.3,1.4c0.1,0.8,0,1.5,0,2.3c0,11.9,0,23.7,0,35.6
			c0,1-0.1,2,0.2,3.2c0.4,0.1,0.9,0.3,1.3,0.4c0.5,0.1,1,0,1.5,0c4.9,0,9.8,0,14.7,0c0.9,0,1.9,0.2,2.7-0.4c0.5-0.8,0.3-1.7,0.4-2.5
			c0-3.1,0-6.3,0-9.4c0-9.2,0-18.5,0-27.7c0-0.9-0.2-1.9,0.3-2.8c0.4-0.1,0.7-0.2,1-0.2c7.5,0,15.1,0,22.7,0
			C515.4,32.3,515.6,32.8,515.6,33.3z"/>
		<path class="st0" d="M440.8,106.7c0.7,3.5,0.5,7.1,0.9,10.6c-0.3,7.5-0.7,15.1-2.9,22.3c-1.7,5.4-4.6,10.2-8.6,14.2
			c-4.3,4.3-9.6,6.9-15.7,7.5c-1.9,0.2-3.9,0.4-5.8,0.4c-3.5,0-6.9-0.6-10.2-1.8c-5.6-2-10.1-5.4-13.7-10.1
			c-3.3-4.4-5.5-9.3-6.8-14.7c-1-4.1-1.5-8.2-1.9-12.3c-0.1-1.4,0-2.9,0-4.4c0.5-0.1,0.8-0.3,1.2-0.3c6.6,0,13.2,0,19.8,0
			c0.4,0,0.8,0.1,1.3,0.2c0.3,3.1,1.6,5.8,2.7,8.5c1,2.5,2.9,3.9,5.4,4.5c2.8,0.7,5.3,0.5,7.8-1.1c1.2-0.8,2-1.8,2.6-3
			c1.2-2.3,1.5-4.9,1.2-7.4c-0.3-1.9-1.3-3.5-2.8-4.7c-1.9-1.7-4.1-3-6.5-4c-2.7-1.1-5.3-2.2-7.9-3.4c-3.7-1.6-7.4-3.5-10.6-5.9
			c-3.6-2.8-6.5-6.1-8.5-10.3c-2-4.2-3.3-8.5-3.9-13.1c-0.7-5.5-0.6-11,0-16.5c0.4-4.4,1.3-8.7,2.8-12.9c2-6,5.2-11.2,10.4-15
			c3-2.2,6.2-3.8,9.8-4.6c6.4-1.5,12.8-1.4,19.1,0.5c7,2.1,11.8,6.7,15,13.2c2.3,4.5,3.4,9.2,4.1,14.1c0.4,2.5,0.4,5.1,0.5,7.6
			c0,0.7-0.1,1.3-0.1,2.1c-2.3,0.4-13.3,0.6-20.8,0.3c-0.5,0-1-0.1-1.6-0.2c-0.1-0.8-0.2-1.6-0.3-2.3c-0.7-3.8-2.8-6.5-6.5-7.8
			c-2.7-0.9-5.2-0.1-7,2.2c-1.6,2-2.2,4.4-2,6.9c0.3,3.7,2,6.6,5.4,8.3c2.6,1.3,5.2,2.5,7.9,3.6c4.4,1.8,8.6,3.9,12.7,6.4
			c3.6,2.2,6.4,5.1,8.8,8.7C438.5,97.3,439.9,101.9,440.8,106.7z"/>
	</g>
</g>
</svg>
