<?xml version="1.0" encoding="utf-8"?>
<!-- Generator: Adobe Illustrator 23.0.3, SVG Export Plug-In . SVG Version: 6.00 Build 0)  -->
<svg version="1.1" id="Layer_1" xmlns="http://www.w3.org/2000/svg" xmlns:xlink="http://www.w3.org/1999/xlink" x="0px" y="0px"
	 viewBox="0 0 879.3 158.6" style="enable-background:new 0 0 879.3 158.6;" xml:space="preserve">
<style type="text/css">
	.st0{fill:#FFFFFF;}
</style>
<g>
	<path class="st0" d="M48.9,68h4.1v9.6h11V68H68V91h-4.1v-9.7h-11V91h-4.1V68z"/>
	<path class="st0" d="M78.1,79.6L78.1,79.6c0-6.6,5-12,12.1-12s12,5.4,12,11.9v0.1c0,6.5-5,11.9-12.1,11.9
		C83.1,91.4,78.1,86.1,78.1,79.6z M98,79.6L98,79.6c0-4.6-3.3-8.3-7.8-8.3c-4.6,0-7.8,3.7-7.8,8.1v0.1c0,4.5,3.3,8.2,7.8,8.2
		S98,84,98,79.6z"/>
	<path class="st0" d="M112.4,68h4.3l7,10.9l7-10.9h4.3V91H131V74.5l-7.3,10.9h-0.1l-7.2-10.8V91h-4V68z"/>
	<path class="st0" d="M146.2,68h17.1v3.6h-13.1v6h11.6v3.6h-11.6v6.2h13.2V91h-17.3V68z"/>
	<path class="st0" d="M187.6,79.6L187.6,79.6c0-6.6,5-12,12.1-12s12,5.4,12,11.9v0.1c0,6.5-5,11.9-12.1,11.9S187.6,86.1,187.6,79.6z
		 M207.5,79.6L207.5,79.6c0-4.6-3.3-8.3-7.8-8.3c-4.6,0-7.8,3.7-7.8,8.1v0.1c0,4.5,3.3,8.2,7.8,8.2S207.5,84,207.5,79.6z"/>
	<path class="st0" d="M221.9,68h17.2v3.7H226v6.3h11.6v3.7H226V91h-4.1V68z"/>
	<path class="st0" d="M269.5,71.7h-7.3V68H281v3.8h-7.3V91h-4.1V71.7z"/>
	<path class="st0" d="M290.5,68h4.1v9.6h11V68h4.1V91h-4.1v-9.7h-11V91h-4.1V68z"/>
	<path class="st0" d="M320.7,68h17.1v3.6h-13.1v6h11.6v3.6h-11.6v6.2H338V91h-17.3V68z"/>
	<path class="st0" d="M362.1,79.6L362.1,79.6c0-6.6,4.9-12,11.9-12c4.3,0,6.8,1.5,9,3.6l-2.6,3c-1.8-1.7-3.8-2.9-6.5-2.9
		c-4.4,0-7.6,3.6-7.6,8.1v0.1c0,4.5,3.2,8.2,7.6,8.2c2.8,0,4.7-1.1,6.6-3l2.6,2.6c-2.4,2.5-5,4.1-9.4,4.1
		C367.2,91.4,362.1,86.2,362.1,79.6z"/>
	<path class="st0" d="M392.7,68H403c2.9,0,5.2,0.9,6.7,2.3c1.2,1.3,1.9,3,1.9,5v0.1c0,3.8-2.3,6.1-5.5,7l6.2,8.7h-4.8l-5.7-8h-5.1v8
		h-4.1V68z M402.7,79.4c2.9,0,4.7-1.5,4.7-3.9v-0.1c0-2.5-1.8-3.8-4.8-3.8h-5.9v7.8H402.7z"/>
	<path class="st0" d="M421.8,68h17.1v3.6h-13.1v6h11.6v3.6h-11.6v6.2h13.2V91h-17.3V68z"/>
	<path class="st0" d="M457.3,67.8h3.8L471.2,91h-4.3l-2.3-5.6h-10.9l-2.4,5.6h-4.2L457.3,67.8z M463.1,81.9l-4-9.2l-4,9.2H463.1z"/>
	<path class="st0" d="M480.4,68h4.3l7,10.9l7-10.9h4.3V91H499V74.5l-7.3,10.9h-0.1l-7.2-10.8V91h-4V68z"/>
	<path class="st0" d="M528.3,79.6L528.3,79.6c0-6.6,4.9-12,11.9-12c4.3,0,6.8,1.5,9,3.6l-2.6,3c-1.8-1.7-3.8-2.9-6.5-2.9
		c-4.4,0-7.6,3.6-7.6,8.1v0.1c0,4.5,3.2,8.2,7.6,8.2c2.8,0,4.7-1.1,6.6-3l2.6,2.6c-2.4,2.5-5,4.1-9.4,4.1
		C533.3,91.4,528.3,86.2,528.3,79.6z"/>
	<path class="st0" d="M558.9,68h4.1v9.6h11V68h4.1V91H574v-9.7h-11V91h-4.1V68z"/>
	<path class="st0" d="M589.2,68h17.1v3.6h-13.1v6h11.6v3.6h-11.6v6.2h13.2V91h-17.3V68z"/>
	<path class="st0" d="M616.5,68h17.1v3.6h-13.1v6h11.6v3.6h-11.6v6.2h13.2V91h-17.3V68z"/>
	<path class="st0" d="M642.2,87.7l2.4-2.9c2.2,1.9,4.5,3,7.3,3c2.5,0,4.1-1.2,4.1-2.9v-0.1c0-1.6-0.9-2.5-5.2-3.5
		c-4.9-1.2-7.7-2.6-7.7-6.9v-0.1c0-4,3.3-6.7,7.9-6.7c3.4,0,6,1,8.4,2.9l-2.2,3.1c-2.1-1.6-4.2-2.4-6.3-2.4c-2.4,0-3.8,1.2-3.8,2.7
		V74c0,1.8,1.1,2.6,5.5,3.6c4.9,1.2,7.4,2.9,7.4,6.8v0.1c0,4.3-3.4,6.9-8.2,6.9C648.4,91.4,645,90.1,642.2,87.7z"/>
	<path class="st0" d="M670.1,68h17.1v3.6h-13.1v6h11.6v3.6h-11.6v6.2h13.2V91h-17.3V68z"/>
	<path class="st0" d="M712.5,68h9.1c5.4,0,8.8,3.1,8.8,7.7v0.1c0,5.2-4.2,7.9-9.2,7.9h-4.6V91h-4.1V68z M721.3,80c3.1,0,5-1.7,5-4.1
		v-0.1c0-2.7-1.9-4.1-5-4.1h-4.7V80H721.3z"/>
	<path class="st0" d="M740,68h4.1V91H740V68z"/>
	<path class="st0" d="M754.6,88l13.6-16.5h-13.2V68h18.5v3l-13.7,16.5h13.7V91h-18.9V88z"/>
	<path class="st0" d="M783,88l13.6-16.5h-13.2V68h18.5v3l-13.7,16.5h13.7V91H783V88z"/>
	<path class="st0" d="M820.4,67.8h3.8L834.3,91H830l-2.3-5.6h-10.9l-2.4,5.6h-4.2L820.4,67.8z M826.2,81.9l-4-9.2l-4,9.2H826.2z"/>
</g>
</svg>
